<?xml version="1.0" standalone="no"?><!DOCTYPE svg PUBLIC "-//W3C//DTD SVG 1.1//EN" "http://www.w3.org/Graphics/SVG/1.1/DTD/svg11.dtd"><svg class="icon" height="512" viewBox="0 0 1024 1024" version="1.1" xmlns="http://www.w3.org/2000/svg"><path d="M495.191919 199.240404v9.826263l9.179798-5.171718c32.193939-17.971717 59.733333-25.858586 59.991919-25.858585l10.084849-2.973738-7.369697-7.628283c-26.246465-27.280808-33.486869-75.636364-33.486869-76.153535l-1.422222-9.438384-8.145455 4.913132c-17.454545 10.731313-55.725253 22.49697-55.983838 22.496969l-7.111111 2.19798 3.361616 6.723232c20.686869 42.020202 29.478788 75.894949 30.90101 81.066667z m-132.783838 55.078788l9.309091 4.913131-0.258586-10.60202c-0.258586-13.705051 9.69697-28.573737 9.826262-28.70303l5.301011-7.886869-9.179798-2.068687c-6.076768-1.292929-17.325253-6.593939-21.204041-8.533333l-6.464646-3.232323-2.068687 7.240404c-5.430303 18.488889-12.282828 30.90101-12.412121 31.030303l-4.137374 7.240404 8.016162 2.068687c13.575758 3.361616 23.143434 8.533333 23.272727 8.533333z m389.559596 10.731313l6.981818 8.016162 3.490909-10.214142c7.240404-20.816162 30.383838-36.977778 30.642424-37.236363l7.757576-5.430303-8.016162-5.171718c-10.084848-6.464646-26.117172-24.177778-26.246464-24.30707l-5.042424-5.559596-4.525253 5.947474c-14.739394 19.523232-28.573737 32.452525-33.228283 36.589899h-17.454545l16.161616 11.636364c17.971717 12.670707 29.349495 25.6 29.478788 25.729293z m0 0.517172" fill="" /><path d="M819.846465 438.044444L731.151515 628.363636H360.985859c-21.333333-68.913131-110.674747-358.270707-126.448485-408.565656-10.860606-34.909091-34.521212-50.165657-52.234344-56.888889-19.393939-7.240404-36.072727-6.076768-36.848485-5.947475-3.878788 0.387879-7.369697 2.19798-9.826262 5.042424-2.456566 2.973737-3.749495 6.723232-3.361616 10.602021 0.646465 7.886869 7.628283 13.963636 15.385858 13.317171 1.810101-0.129293 45.123232-3.10303 59.474748 42.537374 17.713131 56.371717 128.517172 415.159596 129.551515 418.650505 0.387879 1.163636 0.905051 2.327273 1.422222 3.232323l-28.832323 81.713132c-0.517172 1.680808-0.905051 3.232323-0.905051 4.913131 0 25.987879 17.19596 46.416162 38.917172 46.416162h409.987879c8.016162 0 14.610101-6.723232 14.610101-14.868687s-6.593939-14.868687-14.610101-14.868687H348.056566c-4.913131 0-9.438384-6.852525-10.214142-14.99798l28.961616-81.971717h373.268687c5.430303 0 10.60202-3.232323 12.929293-8.274748l100.460606-215.919192c3.361616-7.240404 2.327273-5.042424 3.361616-7.240404 1.034343-2.068687 31.935354-68.525253 31.935354-68.525252 2.327273-4.654545 1.939394-9.955556-0.646465-14.222222v-0.775758c-2.585859-4.39596-7.240404-6.981818-12.153535-6.981818H373.656566c-8.016162 0-14.480808 6.723232-14.480808 14.868687s6.464646 14.868687 14.480808 14.868687h480.064646l-20.169697 43.183838M457.69697 854.109091c0-30.383838-24.307071-54.949495-54.173738-54.949495-29.866667 0-54.173737 24.694949-54.173737 54.949495 0 30.383838 24.307071 54.949495 54.173737 54.949495 29.866667 0 54.173737-24.694949 54.173738-54.949495zM728.953535 854.109091c0-30.383838-24.307071-54.949495-54.173737-54.949495-29.866667 0-54.173737 24.694949-54.173737 54.949495 0 30.383838 24.307071 54.949495 54.173737 54.949495 29.866667 0 54.173737-24.694949 54.173737-54.949495z" fill="" /><path d="M569.018182 618.925253c-10.989899 0-19.781818-8.791919-19.781818-19.781819s8.791919-19.781818 19.781818-19.781818 19.781818 8.791919 19.781818 19.781818c0.129293 10.989899-8.791919 19.781818-19.781818 19.781819z m3.878788-61.672728h-10.602021l-12.024242-152.30707c-0.646465-12.8 6.335354-27.668687 17.713131-27.668687 12.024242 0 19.523232 14.480808 18.359596 27.668687L572.89697 557.252525z" fill="" /></svg>